<?xml version="1.0" standalone="no"?>
<!DOCTYPE svg PUBLIC "-//W3C//DTD SVG 20010904//EN"
 "http://www.w3.org/TR/2001/REC-SVG-20010904/DTD/svg10.dtd">
<svg version="1.0" xmlns="http://www.w3.org/2000/svg"
 width="76.000000pt" height="54.000000pt" viewBox="0 0 76.000000 54.000000"
 preserveAspectRatio="xMidYMid meet">

<g transform="translate(0.000000,54.000000) scale(0.100000,-0.100000)"
fill="#000000" stroke="none">
<path d="M0 270 l0 -270 380 0 380 0 0 270 0 270 -380 0 -380 0 0 -270z m304
104 c26 -10 18 -24 -13 -24 -45 0 -46 -17 -4 -37 31 -15 38 -23 38 -47 0 -23
-6 -31 -28 -39 -33 -11 -77 -2 -77 16 0 7 14 12 37 12 46 0 53 18 13 35 -44
18 -56 44 -30 70 21 21 37 24 64 14z m126 -33 c0 -44 18 -65 27 -32 3 12 9 21
13 21 4 0 10 -9 13 -21 9 -33 27 -12 27 32 0 21 5 39 10 39 11 0 13 -46 4
-114 -7 -50 -23 -60 -39 -23 -13 29 -29 28 -33 -1 -2 -15 -9 -22 -20 -20 -14
3 -18 18 -20 81 -2 48 1 77 8 77 5 0 10 -18 10 -39z m-316 -22 l-28 -29 29
-30 c38 -39 12 -39 -35 0 l-35 30 40 34 c47 40 69 37 29 -5z m556 1 l35 -30
-35 -30 c-47 -39 -73 -40 -35 0 l29 30 -29 30 c-38 40 -12 39 35 0z"/>
</g>
</svg>
